<svg width="32" height="45" viewBox="0 0 32 45" fill="none" xmlns="http://www.w3.org/2000/svg">
<path d="M30.5774 15C30.5774 23.2843 23.8616 30 15.5774 30C7.2931 30 0.577374 23.2843 0.577374 15C0.577374 6.71573 7.2931 0 15.5774 0C23.8616 0 30.5774 6.71573 30.5774 15Z" fill="#0038A8"/>
<path d="M12.9788 40.496C14.1333 42.4971 17.0214 42.4971 18.1759 40.496L28.559 22.4992C29.7128 20.4992 28.2694 18 25.9604 18H5.19429C2.8853 18 1.44187 20.4992 2.59575 22.4992L12.9788 40.496Z" fill="#0038A8"/>
<path fill-rule="evenodd" clip-rule="evenodd" d="M21.326 11C21.6233 11.0001 21.8903 11.1781 22.0007 11.4492L22.8736 13.5921C23.0645 14.0611 22.7132 14.5712 22.1989 14.5714H21.8182V17.6881C22.2879 17.9381 22.6536 18.3525 22.8352 18.8571H23.8018C23.9112 18.8572 23.9999 18.9443 24 19.0518C24 19.7489 23.6259 20.3586 23.0653 20.7028L23.2727 23.1429H22.5455V25.2857C22.5455 25.6802 22.2198 26 21.8182 26H21.0909C20.6892 26 20.3636 25.6802 20.3636 25.2857V23.1429H11.6364V25.2857C11.6364 25.6802 11.3108 26 10.9091 26H10.1818C9.78016 26 9.45455 25.6802 9.45455 25.2857V23.1429H8.72727L8.93395 20.7028C8.37371 20.3586 8 19.7487 8 19.0518C8.0001 18.9443 8.08876 18.8572 8.19815 18.8571H9.16477C9.34638 18.3525 9.71214 17.9381 10.1818 17.6881V14.5714H9.80114C9.28685 14.5712 8.93548 14.0611 9.12642 13.5921L9.99929 11.4492C10.1097 11.1781 10.3767 11.0001 10.674 11H21.326ZM11.2727 18.1429C10.6702 18.1429 10.1818 18.6226 10.1818 19.2143C10.1818 19.806 10.6702 20.2857 11.2727 20.2857C11.8752 20.2857 12.3636 19.806 12.3636 19.2143C12.3636 18.6226 11.8752 18.1429 11.2727 18.1429ZM20.7273 18.1429C20.1248 18.1429 19.6364 18.6226 19.6364 19.2143C19.6364 19.806 20.1248 20.2857 20.7273 20.2857C21.3298 20.2857 21.8182 19.806 21.8182 19.2143C21.8182 18.6226 21.3298 18.1429 20.7273 18.1429ZM11.6364 17.4286H20.3636V14.5714H11.6364V17.4286Z" fill="white"/>
<path d="M16.085 5.625L15.8369 7.66895C15.9217 7.67815 16.0056 7.69024 16.0879 7.70703L16.3975 5.8584L16.709 6.24902L16.2861 7.75879C16.4659 7.80987 16.6382 7.87795 16.8008 7.96289L17.6201 6.50684L18.1172 6.45215L16.9678 8.05957C17.0392 8.10357 17.1079 8.15097 17.1748 8.20117L18.5029 6.50684L19.3301 6.45215L19.2754 7.2793L17.5977 8.59375C17.6527 8.65706 17.7048 8.72278 17.7539 8.79102L19.3301 7.66602L19.2754 8.16211L17.8633 8.95605C17.996 9.1717 18.099 9.40639 18.168 9.65625L19.752 9.21289L20.1416 9.52539L18.2158 9.8457C18.2271 9.9023 18.2344 9.95978 18.2422 10.0176L20.376 9.75977L21 10.3057L20.9561 10.3438H10.0439L10 10.3057L10.624 9.75977L12.834 10.0264C12.8414 9.96989 12.8486 9.91374 12.8594 9.8584L10.8584 9.52539L11.248 9.21289L12.9043 9.67676C12.9671 9.44211 13.0585 9.21988 13.1777 9.01465L11.6631 8.16211L11.6074 7.66602L13.2734 8.85645C13.3197 8.78794 13.3697 8.7221 13.4219 8.6582L11.6631 7.2793L11.6074 6.45215L12.4355 6.50684L13.8145 8.2666C13.878 8.21475 13.9436 8.16519 14.0117 8.11914L12.8213 6.45215L13.3174 6.50684L14.1699 8.02246C14.3633 7.91006 14.5712 7.8203 14.791 7.75781L14.3691 6.24902L14.6807 5.8584L14.9893 7.70703C15.0716 7.69022 15.1554 7.67817 15.2402 7.66895L14.9932 5.625L15.5391 5L16.085 5.625Z" fill="white"/>
</svg>
