<svg width="35" height="45" viewBox="0 0 35 45" fill="none" xmlns="http://www.w3.org/2000/svg">
<path fill-rule="evenodd" clip-rule="evenodd" d="M28.5557 12.8562C29.1928 12.8563 29.7649 13.2378 30.0015 13.8188L31.872 18.4106C32.2811 19.4157 31.5282 20.5087 30.4261 20.5092H29.6104V27.1877C30.6168 27.7236 31.4006 28.6115 31.7898 29.6929H33.8611C34.0955 29.6931 34.2855 29.8797 34.2857 30.1099C34.2857 31.6038 33.484 32.9104 32.2829 33.648L32.7273 38.8766H31.1688V43.4684C31.1688 44.3137 30.4711 44.999 29.6104 44.999H28.0519C27.1912 44.999 26.4935 44.3137 26.4935 43.4684V38.8766H7.79221V43.4684C7.79221 44.3137 7.09447 44.999 6.23377 44.999H4.67532C3.81462 44.999 3.11688 44.3137 3.11688 43.4684V38.8766H1.55844L2.00132 33.648C0.800817 32.9102 0 31.6033 0 30.1099C0.000223811 29.8797 0.190206 29.6931 0.424614 29.6929H2.49594C2.8851 28.6115 3.66887 27.7236 4.67532 27.1877V20.5092H3.85958C2.75753 20.5087 2.0046 19.4157 2.41376 18.4106L4.28419 13.8188C4.52081 13.2378 5.09293 12.8563 5.73001 12.8562H28.5557ZM7.01299 28.1623C5.72193 28.1623 4.67532 29.1902 4.67532 30.4582C4.67532 31.7262 5.72193 32.7541 7.01299 32.7541C8.30404 32.7541 9.35065 31.7262 9.35065 30.4582C9.35065 29.1902 8.30404 28.1623 7.01299 28.1623ZM27.2727 28.1623C25.9817 28.1623 24.9351 29.1902 24.9351 30.4582C24.9351 31.7262 25.9817 32.7541 27.2727 32.7541C28.5638 32.7541 29.6104 31.7262 29.6104 30.4582C29.6104 29.1902 28.5638 28.1623 27.2727 28.1623ZM7.79221 26.6317H26.4935V20.5092H7.79221V26.6317Z" fill="white"/>
<path d="M17.3248 1.33691L16.7935 5.71875C16.9758 5.73853 17.1557 5.76562 17.3326 5.80176L17.9937 1.83887L18.6627 2.6748L17.7574 5.90723C18.1427 6.01671 18.5115 6.16464 18.8599 6.34668L20.6148 3.22852L21.6783 3.11035L19.2203 6.55078C19.3732 6.64503 19.5215 6.74602 19.6646 6.85352L22.5064 3.22852L24.2789 3.11035L24.1607 4.88379L20.5699 7.69727C20.6879 7.83289 20.7996 7.97395 20.9049 8.12012L24.2789 5.71094L24.1607 6.77539L21.1402 8.47266C21.4248 8.93498 21.6457 9.43986 21.7935 9.97559L25.1822 9.02734L26.0181 9.69629L21.8922 10.3838C21.9163 10.5048 21.9352 10.6274 21.9517 10.751L26.5201 10.1973L27.857 11.3682L27.7642 11.4492H4.37849L4.28571 11.3682L5.62263 10.1973L10.3551 10.7705C10.3709 10.6493 10.3886 10.5289 10.4117 10.4102L6.12458 9.69629L6.96052 9.02734L10.5025 10.0186C10.6371 9.51551 10.8377 9.03955 11.0933 8.59961L7.84919 6.77539L7.73103 5.71094L11.3033 8.2627C11.4022 8.11636 11.5083 7.97536 11.6197 7.83887L7.84919 4.88379L7.73103 3.11035L9.50349 3.22852L12.4586 6.99902C12.5953 6.8875 12.7368 6.78162 12.8834 6.68262L10.3316 3.11035L11.3951 3.22852L13.2203 6.47363C13.6348 6.23274 14.0813 6.04112 14.5523 5.90723L13.647 2.6748L14.316 1.83887L14.9761 5.80176C15.1533 5.76552 15.3336 5.73858 15.5162 5.71875L14.9849 1.33691L16.1549 0L17.3248 1.33691Z" fill="white"/>
</svg>
